# xmcd CD database file
#
# Track frame offsets:
#	150
#	19344
#	47881
#	63882
#	86420
#	106820
#	125298
#	138719
#	154807
#
# Disc length: 2226 seconds
#
# Revision: 0
# Processed by: cddbd v1.4PL0 Copyright (c) Steve Scherf et al.
# Submitted via: Feurio! 1.66 - http://www.feurio.com
#
DISCID=7308b009
DTITLE=Heaven 17 - PENTHOUSE AND PAVEMENT
DYEAR=1900
DGENRE=
TTITLE0=(WE DON'T NEED THIS) FASCIST GROOVE THANG
TTITLE1=PENTHOUSE AND PAVEMENT
TTITLE2=PLAY TO WIN
TTITLE3=SOUL WARFARE
TTITLE4=GEISHA BOYS AND TEMPLE GIRLS
TTITLE5=LET'S ALL MAKE A BOMB
TTITLE6=THE HEIGHT OF THE FIGHTING
TTITLE7=SONG WITH NO NAME
TTITLE8=WE'RE GOING TO LIVE FOR A VERY LONG TIME
EXTD=von LP
EXTT0=
EXTT1=
EXTT2=
EXTT3=
EXTT4=
EXTT5=
EXTT6=
EXTT7=
EXTT8=
PLAYORDER=
